<svg width="512" height="512" viewBox="0 0 512 512" fill="none" xmlns="http://www.w3.org/2000/svg">
  <style>
    #frame { fill: #000; }
    #letter-n, #letter-j { fill: #F8F1EA;}
    @media (prefers-color-scheme: dark) {
      #frame { fill: #F8F1EA; }
      #letter-n, #letter-j { fill: #000; }
    }
  </style>
  <rect id="frame" width="512" height="512"/>
  <path id="letter-n" d="M79.3638 344.015C67.2829 335.986 60.7837 331.399 60.4396 330.749C59.7897 329.296 59.8662 327.002 60.6308 325.549C60.9748 324.861 66.0595 317.329 71.947 308.88C77.7963 300.355 86.36 288.044 90.8712 281.392C99.5113 268.814 119.812 239.3 129.866 224.734C136.977 214.449 150.167 195.334 159.457 181.762C174.52 159.894 177.349 155.994 178.419 155.497C178.993 155.191 180.331 155 181.325 155C183.084 155 184.383 155.841 201.855 167.463L220.511 179.927H228.807H237.065L238.671 177.786C239.55 176.601 243.106 171.478 246.585 166.469C254.69 154.847 254.46 155.038 257.404 155.038H259.736L277.36 166.699C287.033 173.122 295.443 178.856 296.132 179.43C297.087 180.347 297.24 180.844 297.24 182.756C297.24 185.164 297.737 184.323 283.515 205.045C282.216 206.88 276.443 215.291 270.708 223.701C264.897 232.15 257.251 243.238 253.696 248.399C245.896 259.753 238.442 270.649 203.537 321.688C188.818 343.174 180.943 354.414 180.14 355.37C179.452 356.134 178.84 356.287 176.967 356.287H174.635L156.781 344.435C146.956 337.936 138.468 332.163 137.895 331.552C137.054 330.749 136.901 330.137 136.901 328.34C136.901 326.199 136.977 325.97 142.903 317.444C146.229 312.665 149.976 307.275 151.199 305.44C152.461 303.605 157.89 295.767 163.242 288.006C178.916 265.335 189.965 249.278 197.305 238.612C201.052 233.144 207.819 223.281 212.292 216.743L220.473 204.892V195.525C220.473 189.982 220.32 186.158 220.091 186.158C219.9 186.158 219.212 186.847 218.6 187.726C218.026 188.567 216 191.511 214.089 194.225C211.068 198.66 198.987 216.246 169.856 258.759C162.095 270.076 142.559 298.482 131.243 314.768C124.744 324.173 111.669 343.097 107.502 349.1C105.246 352.349 103.029 355.293 102.532 355.675C101.996 356.019 100.735 356.287 99.626 356.287C97.7527 356.287 96.8734 355.79 79.2491 344.015H79.3638Z"/>
  <path id="letter-j" d="M251.383 356.229C247.323 353.931 215.88 332.751 215.037 331.717C214.233 330.721 214.118 330.147 214.233 328.385C214.386 326.662 214.808 325.742 216.454 323.406C225.838 309.963 247.476 278.749 261.264 258.604C264.251 254.276 268.924 247.42 271.643 243.437C274.4 239.454 277.081 235.662 277.656 235.05C278.996 233.594 280.835 233.25 282.941 233.977C283.86 234.322 292.707 239.952 302.665 246.578C315.572 255.195 320.78 258.872 321.087 259.676C322.121 262.319 321.661 263.123 309.903 279.822C308.333 282.12 303.431 289.167 299.065 295.563L291.099 307.167V315.938C291.099 320.764 291.252 324.976 291.482 325.245C291.75 325.666 293.205 323.866 296.614 319.002C302.244 311.036 313.274 295.065 319.363 286.103C324.074 279.209 352.568 237.654 355.364 233.633C356.322 232.254 360.611 225.973 364.939 219.692C369.228 213.411 373.173 207.666 373.709 207.015C374.628 205.827 374.667 205.444 374.743 196.099C374.782 190.814 374.667 186.448 374.475 186.41C374.169 186.371 366.356 197.516 355.019 214.1C352.53 217.777 350.041 221.185 349.466 221.722C348.202 222.832 345.368 222.985 343.415 221.99C341.194 220.841 307.606 198.282 306.993 197.555C306.61 197.095 306.38 195.908 306.38 194.606C306.342 192.691 306.533 192.078 308.027 189.933C308.946 188.593 314.423 180.703 320.206 172.354C325.951 164.004 331.121 156.766 331.734 156.268C332.576 155.502 333.266 155.311 335.142 155.311H337.517L356.207 167.796L374.896 180.282L383.361 180.205L391.901 180.09L400.135 168.256C404.655 161.745 408.714 156.153 409.059 155.923C409.442 155.617 410.821 155.387 412.046 155.387H414.383L432.728 167.643C452.528 180.856 452.337 180.741 451.877 184.073C451.686 185.644 450.345 187.673 437.821 205.904C436.519 207.742 431.655 214.828 426.983 221.722C408.599 248.531 402.012 258.182 397.225 265.153C391.442 273.502 385.352 282.503 366.586 309.848C337.593 352.169 335.832 354.735 334.644 356.114C333.955 356.88 333.342 357.033 331.427 357.033C328.708 357.033 330.623 358.182 306.763 342.403L291.214 332.1H282.75H274.286L271.911 335.547C262.03 349.948 258.468 354.888 257.664 355.769C256.4 357.071 253.221 357.378 251.421 356.382L251.383 356.229Z"/>
</svg>
