<svg width="512" height="512" viewBox="0 0 512 512" fill="none" xmlns="http://www.w3.org/2000/svg">
<rect width="512" height="512" fill="black"/>
<path d="M66.8132 350.831C53.828 342.215 46.8424 337.292 46.4725 336.595C45.774 335.036 45.8561 332.574 46.678 331.015C47.0478 330.277 52.5131 322.195 58.8413 313.128C65.1284 303.979 74.333 290.769 79.1819 283.631C88.4688 270.133 110.289 238.462 121.096 222.831C128.739 211.795 142.916 191.282 152.901 176.718C169.092 153.251 172.133 149.067 173.283 148.533C173.899 148.205 175.338 148 176.406 148C178.296 148 179.693 148.903 198.473 161.374L218.526 174.749H227.443H236.319L238.044 172.451C238.99 171.179 242.811 165.682 246.551 160.308C255.262 147.836 255.016 148.041 258.18 148.041H260.686L279.63 160.554C290.026 167.446 299.066 173.6 299.806 174.215C300.833 175.2 300.998 175.733 300.998 177.785C300.998 180.369 301.532 179.467 286.246 201.703C284.848 203.672 278.644 212.697 272.48 221.723C266.234 230.79 258.015 242.687 254.194 248.226C245.811 260.41 237.798 272.103 200.281 326.872C184.46 349.928 175.995 361.99 175.132 363.015C174.393 363.836 173.735 364 171.722 364H169.215L150.025 351.282C139.464 344.308 130.342 338.113 129.725 337.456C128.821 336.595 128.657 335.938 128.657 334.01C128.657 331.713 128.739 331.467 135.108 322.318C138.683 317.19 142.71 311.405 144.025 309.436C145.381 307.467 151.217 299.056 156.969 290.728C173.817 266.4 185.693 249.169 193.583 237.723C197.61 231.856 204.883 221.272 209.691 214.256L218.485 201.538V191.487C218.485 185.538 218.32 181.436 218.074 181.436C217.868 181.436 217.128 182.174 216.471 183.118C215.855 184.021 213.677 187.179 211.622 190.092C208.376 194.851 195.391 213.723 164.078 259.344C155.737 271.487 134.739 301.969 122.575 319.446C115.59 329.538 101.536 349.846 97.057 356.287C94.6326 359.774 92.2492 362.933 91.715 363.344C91.1398 363.713 89.7837 364 88.592 364C86.5785 364 85.6334 363.467 66.6899 350.831H66.8132Z" fill="#F8F1EA"/>
<path d="M251.877 364.115C247.523 361.643 213.806 338.862 212.903 337.749C212.04 336.678 211.917 336.06 212.04 334.165C212.205 332.312 212.656 331.323 214.422 328.81C224.484 314.35 247.688 280.775 262.472 259.106C265.675 254.451 270.686 247.077 273.602 242.792C276.558 238.508 279.433 234.429 280.049 233.77C281.487 232.205 283.458 231.834 285.717 232.617C286.702 232.988 296.189 239.043 306.867 246.17C320.707 255.44 326.292 259.394 326.62 260.259C327.729 263.102 327.236 263.967 314.629 281.929C312.945 284.4 307.688 291.98 303.006 298.86L294.464 311.343V320.777C294.464 325.967 294.628 330.499 294.875 330.787C295.162 331.24 296.723 329.304 300.378 324.072C306.415 315.503 318.243 298.325 324.772 288.685C329.824 281.269 360.378 236.572 363.376 232.246C364.403 230.763 369.003 224.007 373.643 217.251C378.243 210.495 382.473 204.315 383.048 203.615C384.034 202.338 384.075 201.926 384.157 191.874C384.198 186.189 384.075 181.492 383.869 181.451C383.541 181.41 375.163 193.398 363.007 211.236C360.337 215.191 357.668 218.857 357.052 219.434C355.697 220.629 352.658 220.794 350.563 219.722C348.181 218.487 312.164 194.222 311.507 193.439C311.097 192.945 310.85 191.668 310.85 190.267C310.809 188.207 311.015 187.548 312.616 185.241C313.602 183.799 319.475 175.313 325.676 166.332C331.836 157.352 337.38 149.565 338.037 149.03C338.941 148.206 339.68 148 341.692 148H344.239L364.28 161.43L384.321 174.86L393.397 174.777L402.555 174.654L411.385 161.924C416.231 154.921 420.584 148.906 420.954 148.659C421.365 148.33 422.843 148.082 424.157 148.082H426.662L446.334 161.265C467.566 175.478 467.361 175.354 466.868 178.938C466.663 180.627 465.225 182.811 451.796 202.42C450.4 204.397 445.184 212.019 440.174 219.434C420.461 248.271 413.397 258.653 408.264 266.15C402.062 275.131 395.533 284.812 375.409 314.226C344.321 359.748 342.432 362.508 341.159 363.991C340.419 364.815 339.762 364.98 337.709 364.98C334.793 364.98 336.846 366.216 311.261 349.243L294.587 338.161H285.511H276.435L273.889 341.869C263.293 357.359 259.474 362.673 258.612 363.621C257.256 365.021 253.848 365.351 251.918 364.28L251.877 364.115Z" fill="#F8F1EA"/>
</svg>
